<?xml version="1.0" encoding="UTF-8" standalone="no"?>
<svg
   xmlns:dc="http://purl.org/dc/elements/1.1/"
   xmlns:cc="http://creativecommons.org/ns#"
   xmlns:rdf="http://www.w3.org/1999/02/22-rdf-syntax-ns#"
   xmlns:svg="http://www.w3.org/2000/svg"
   xmlns="http://www.w3.org/2000/svg"
   xmlns:sodipodi="http://sodipodi.sourceforge.net/DTD/sodipodi-0.dtd"
   height="480"
   width="640"
   version="1"
   id="svg3355"
   sodipodi:docname="au.svg">
  <metadata
     id="metadata3375">
    <rdf:RDF>
      <cc:Work
         rdf:about="">
        <dc:format>image/svg+xml</dc:format>
        <dc:type
           rdf:resource="http://purl.org/dc/dcmitype/StillImage" />
      </cc:Work>
    </rdf:RDF>
  </metadata>
  <defs
     id="defs3373" />
  <sodipodi:namedview
     pagecolor="#ffffff"
     bordercolor="#666666"
     borderopacity="1"
     objecttolerance="10"
     gridtolerance="10"
     guidetolerance="10"
     id="namedview3371"
     showgrid="false" />
  <g
     id="g3396">
    <path
       d="m 0,0 640,0 0,480 -640,0 z"
       id="path3359"
       style="fill:#000066;stroke-width:1pt" />
    <path
       d="M 0,0 0,27.95 307.037,250 l 38.647,0 0,-27.95 L 38.647,0 0,0 Z m 345.684,0 0,27.95 L 38.647,250 0,250 0,222.05 307.037,0 345.684,0 Z"
       id="path3361"
       style="fill:#ffffff;stroke-width:1pt" />
    <path
       d="m 144.035,0 0,250 57.614,0 0,-250 -57.615,0 z M 0,83.333 l 0,83.333 345.684,0 0,-83.333 -345.684,0 z"
       id="path3363"
       style="fill:#ffffff;stroke-width:1pt" />
    <path
       d="m 0,100 0,50 345.684,0 0,-50 L 0,100 Z M 155.558,0 l 0,250 34.568,0 0,-250 -34.568,0 z M 0,250 l 115.228,-83.334 25.765,0 L 25.765,250 0,250 Z M 0,0 115.228,83.333 89.463,83.333 0,18.633 0,0 Z M 204.69,83.333 319.92,0 l 25.764,0 -115.228,83.333 -25.766,0 z M 345.685,250 230.457,166.666 l 25.765,0 89.464,64.7 0,18.634 z"
       id="path3365"
       style="fill:#cc0000;stroke-width:1pt" />
    <path
       id="path3394"
       d="m 241.88419,378.24647 -43.653,3.795 6.013,43.406 -30.187,-31.764 -30.186,31.764 6.014,-43.406 -43.653,-3.795 37.68,-22.364 -24.244,-36.495 40.97,15.514 13.42,-41.713 13.42,41.712 40.97,-15.515 -24.242,36.494"
       style="fill:#ffffff;fill-rule:evenodd;stroke-width:1pt" />
    <path
       id="path3392"
       d="m 488.84312,379.28041 -10.537,-15.854 17.81,6.742 5.824,-18.125 5.825,18.126 17.807,-6.742 -10.537,15.854 16.37,9.718 -18.965,1.65 2.616,18.85 -13.116,-13.793 -13.117,13.794 2.616,-18.85 -18.964,-1.65"
       style="fill:#ffffff;fill-rule:evenodd;stroke-width:1pt" />
    <path
       id="path3390"
       d="m 488.84312,97.185411 -10.537,-15.856 17.81,6.742 5.824,-18.122 5.825,18.12 17.807,-6.74 -10.537,15.855 16.37,9.716999 -18.965,1.65 2.616,18.85 -13.116,-13.793 -13.117,13.794 2.616,-18.85 -18.964,-1.65"
       style="fill:#ffffff;fill-rule:evenodd;stroke-width:1pt" />
    <path
       id="path3388"
       d="m 383.05712,211.78541 -10.537,-15.853 17.808,6.742 5.825,-18.125 5.825,18.125 17.808,-6.742 -10.536,15.853 16.37,9.72 -18.965,1.65 2.615,18.85 -13.117,-13.795 -13.117,13.795 2.617,-18.85 -18.964,-1.65"
       style="fill:#ffffff;fill-rule:evenodd;stroke-width:1pt" />
    <path
       id="path3386"
       d="m 582.90112,183.57641 -10.558,-15.854 17.822,6.742 5.782,-18.125 5.854,18.125 17.772,-6.742 -10.508,15.854 16.362,9.718 -18.97,1.65 2.608,18.85 -13.118,-13.793 -13.117,13.793 2.61,-18.85 -18.936,-1.65"
       style="fill:#ffffff;fill-rule:evenodd;stroke-width:1pt" />
    <path
       id="path3369"
       d="m 544.25312,266.68841 -10.367,6.425 2.914,-11.84 -9.316,-7.863 12.165,-0.896 4.605,-11.29 4.606,11.29 12.165,0.897 -9.317,7.863 2.912,11.84"
       style="fill:#ffffff;fill-rule:evenodd;stroke-width:1pt" />
  </g>
</svg>
